<?xml version="1.0" encoding="iso-8859-1"?>
<!-- Generator: Adobe Illustrator 15.1.0, SVG Export Plug-In . SVG Version: 6.00 Build 0)  -->
<!DOCTYPE svg PUBLIC "-//W3C//DTD SVG 1.1//EN" "http://www.w3.org/Graphics/SVG/1.1/DTD/svg11.dtd">
<svg version="1.1" xmlns="http://www.w3.org/2000/svg" xmlns:xlink="http://www.w3.org/1999/xlink" x="0px" y="0px" width="48px"
	 height="48px" viewBox="0 0 48 48" style="enable-background:new 0 0 48 48;" xml:space="preserve">
<g id="_x30_07_x5F_IronMan">
	<path style="fill-rule:evenodd;clip-rule:evenodd;fill:#EC5742;" d="M48,42.09c0,3.264-2.646,5.91-5.911,5.91H5.911
		C2.646,48,0,45.354,0,42.09V5.911C0,2.646,2.646,0,5.911,0h36.178C45.354,0,48,2.646,48,5.911V42.09z"/>
	<path style="fill:#B13937;" d="M34.36,32.702c0,0,2.394-3.612,2.447-6.794c0.004-0.198-0.904-14.148-2.339-15.476
		c-0.931-1.281-5.854-2.956-9.585-2.956c-3.832,0-8.824,1.725-9.656,3.06c-1.442,1.396-2.593,15.188-2.591,15.375
		c0.054,3.182,2.449,6.795,2.449,6.795s1.719,7.381,1.778,7.533l0.03,0.125l0.004-0.028c0.737,1.59,3.96,2.786,7.823,2.786
		c3.864,0,7.086-1.195,7.824-2.785l0.004,0.025l0.025-0.109C32.641,40.091,34.36,32.702,34.36,32.702z"/>
	<g>
		<g>
			<path style="fill:#FFC51B;" d="M28.104,36.307h-6.763l-1.288,1.418l-2.024-0.897c-0.272,1.044-0.541,2.077-0.553,2.131
				c-0.021,0.09,0.034,0.525,0.783,1.026c0.751,0.5,1.23,0.668,2.256-0.082s1.463-0.845,2.014-0.845s1.025,0,1.025,0l0.216-0.493
				h1.886l0.234,0.493c0,0,0.476,0,1.026,0c0.55,0,0.987,0.095,2.014,0.845c1.024,0.75,1.504,0.582,2.255,0.082
				c0.749-0.501,0.804-0.937,0.783-1.026c-0.012-0.054-0.28-1.087-0.553-2.131l-2.024,0.897L28.104,36.307z"/>
		</g>
		<path style="fill:#FFC51B;" d="M35.271,26.318l-0.862-3.752l0.112-8.03c0,0-0.112-0.262-1.538-1.388
			c-1.427-1.126-3.603-2.026-3.603-2.026l-1.613,4.951h-6.09l-1.613-4.951c0,0-2.176,0.9-3.603,2.026
			c-1.426,1.126-1.538,1.388-1.538,1.388l0.112,8.03l-0.862,3.752c0,0-0.263,1.615,0.563,2.701c0.824,1.09,3.414,4.166,3.489,5.367
			c0.073,1.2,0.037,1.576,0.037,1.576l1.632,0.664l1.145-1.228h3h1.365h3l1.145,1.228l1.632-0.664c0,0-0.036-0.376,0.037-1.576
			c0.076-1.201,2.665-4.277,3.489-5.367C35.533,27.934,35.271,26.318,35.271,26.318z"/>
	</g>
	<g>
		<path style="fill:#FFFFFF;" d="M21.173,25.493c0,0-1.859,0.569-3.334,0.46c-1.506-0.112-2.504-0.646-2.446-0.985
			c0.059-0.337,0.589-1.788,0.589-1.788l5.203,1.638L21.173,25.493z"/>
		<path style="fill:#FFFFFF;" d="M31.604,25.953c-1.475,0.109-3.334-0.46-3.334-0.46l-0.012-0.675l5.204-1.638
			c0,0,0.53,1.45,0.589,1.788C34.108,25.307,33.11,25.841,31.604,25.953z"/>
	</g>
</g>
<g id="Layer_1">
</g>
</svg>
