<?xml version="1.0" encoding="iso-8859-1"?>
<!-- Generator: Adobe Illustrator 19.0.0, SVG Export Plug-In . SVG Version: 6.00 Build 0)  -->
<svg version="1.1" id="Layer_1" xmlns="http://www.w3.org/2000/svg" xmlns:xlink="http://www.w3.org/1999/xlink" x="0px" y="0px"
	 viewBox="0 0 512.002 512.002" style="enable-background:new 0 0 512.002 512.002;" xml:space="preserve">
<path style="fill:#797781;" d="M111.08,143.457c0,0-44.497-123.598-13.75-141.35C128.079-15.646,212.868,84.69,212.868,84.69"/>
<path style="fill:#58575D;" d="M299.133,84.688c0,0,84.789-100.334,115.538-82.583c30.748,17.754-13.75,141.35-13.75,141.35"/>
<path style="fill:#88888F;" d="M455.809,276.933c0-110.35-89.456-199.808-199.808-199.808c-110.35,0-199.808,89.458-199.808,199.808
	"/>
<path style="fill:#797781;" d="M256.001,77.125v199.808h199.808C455.809,166.581,366.352,77.125,256.001,77.125z"/>
<path style="fill:#F8F8F9;" d="M491.069,359.206C385.288,359.206,385.288,512,256.001,512S126.713,359.206,20.932,359.206
	c0-58.422,47.359-105.781,105.781-105.781c0-45.439,36.835-82.274,82.274-82.274c17.486,0,33.684,5.471,47.014,14.772
	c13.328-9.302,29.528-14.772,47.014-14.772c45.439,0,82.274,36.835,82.274,82.274C443.709,253.426,491.069,300.784,491.069,359.206z
	"/>
<path style="fill:#EDEDED;" d="M385.288,253.426c0-45.439-36.835-82.274-82.274-82.274c-17.486,0-33.685,5.471-47.014,14.772
	v326.077c129.288,0,129.288-152.794,235.068-152.794C491.069,300.784,443.709,253.426,385.288,253.426z"/>
<path style="fill:#58575D;" d="M214.861,271.056h0.002c12.962,0,23.507-10.545,23.507-23.507s-10.545-23.507-23.507-23.507
	c-12.957,0-23.502,10.543-23.507,23.507C191.357,260.51,201.901,271.056,214.861,271.056z"/>
<path style="fill:#454449;" d="M297.135,271.056h0.002c12.962,0,23.507-10.545,23.507-23.507s-10.545-23.507-23.507-23.507
	c-12.957,0-23.502,10.543-23.507,23.507C273.631,260.51,284.175,271.056,297.135,271.056z"/>
<path style="fill:#EBAFD1;" d="M291.261,394.466v23.507c0,19.473-15.787,35.26-35.26,35.26s-35.26-15.787-35.26-35.26v-23.507
	H291.261z"/>
<path style="fill:#E592BF;" d="M256.001,394.466v58.767c19.473,0,35.26-15.787,35.26-35.26v-23.507H256.001z"/>
<path style="fill:#D8D8DA;" d="M332.398,359.206c0,16.202-13.181,29.384-29.384,29.384s-29.384-13.181-29.384-29.384v-35.26h-35.26
	v35.26c0,16.202-13.181,29.384-29.384,29.384s-29.384-13.181-29.384-29.384h-35.26c0,35.645,28.999,64.644,64.644,64.644
	c18.512,0,35.218-7.834,47.014-20.345c11.796,12.512,28.502,20.345,47.014,20.345c35.645,0,64.644-28.999,64.644-64.644H332.398z"/>
<path style="fill:#C6C5CA;" d="M332.398,359.206c0,16.202-13.181,29.384-29.384,29.384s-29.384-13.181-29.384-29.384v-35.26h-17.63
	v79.559c11.796,12.512,28.502,20.345,47.014,20.345c35.645,0,64.644-28.999,64.644-64.644H332.398z"/>
<path style="fill:#58575D;" d="M293.612,306.316c-6.178,18.747-22.731,39.413-37.611,39.728
	c-14.88-0.316-31.433-20.982-37.611-39.728c-2.854-9.578,4.523-17.504,16.455-17.63c14.104,0,28.208,0,42.312,0
	C289.091,288.812,296.465,296.738,293.612,306.316z"/>
<path style="fill:#454449;" d="M277.157,288.687c-7.052,0-14.104,0-21.156,0v57.358c14.88-0.316,31.433-20.982,37.611-39.728
	C296.465,296.738,289.091,288.812,277.157,288.687z"/>
<g>
</g>
<g>
</g>
<g>
</g>
<g>
</g>
<g>
</g>
<g>
</g>
<g>
</g>
<g>
</g>
<g>
</g>
<g>
</g>
<g>
</g>
<g>
</g>
<g>
</g>
<g>
</g>
<g>
</g>
</svg>
